<svg xmlns="http://www.w3.org/2000/svg" xmlns:xlink="http://www.w3.org/1999/xlink" version="1.1" x="0px" y="0px" width="90px" height="90px" viewBox="4.5 -9.0 90.0 121.5" enable-background="new 0 0 90 90" xml:space="preserve">
<g id="Capa_1">
	<path d="M69.432,55.915c0.631,0.566,1.036,1.38,1.036,2.294v24.986c0,1.706-1.385,3.091-3.091,3.091H18.691   c-1.708,0-3.091-1.385-3.091-3.091V58.209c0-0.914,0.404-1.728,1.035-2.294c-0.403-0.214-0.778-0.474-1.095-0.798   c-0.783,0.798-1.27,1.889-1.27,3.092v24.986c0,2.437,1.982,4.419,4.42,4.419h48.686c2.437,0,4.419-1.982,4.419-4.419V58.209   c0-1.203-0.486-2.294-1.269-3.092C70.21,55.441,69.835,55.701,69.432,55.915z"/>
	<path d="M69.139,58.209v24.986c0,0.972-0.79,1.762-1.762,1.762H18.691c-0.972,0-1.762-0.79-1.762-1.762V58.209   c0-0.973,0.79-1.763,1.762-1.763c-0.746,0-1.439-0.203-2.056-0.531c-0.631,0.566-1.035,1.38-1.035,2.294v24.986   c0,1.706,1.383,3.091,3.091,3.091h48.686c1.706,0,3.091-1.385,3.091-3.091V58.209c0-0.914-0.405-1.728-1.036-2.294   c-0.616,0.328-1.309,0.531-2.055,0.531C68.349,56.446,69.139,57.236,69.139,58.209z"/>
	<path d="M71.796,6.42c0-2.437-1.982-4.419-4.419-4.419H18.691c-2.438,0-4.42,1.982-4.42,4.419v45.606   c0,1.203,0.486,2.294,1.27,3.091c0.316-0.323,0.691-0.583,1.096-0.798c-0.632-0.565-1.036-1.379-1.036-2.293V6.42   c0-1.707,1.383-3.09,3.091-3.09h48.686c1.706,0,3.091,1.384,3.091,3.09v45.606c0,0.914-0.405,1.728-1.036,2.293   c0.403,0.215,0.778,0.475,1.096,0.798c0.782-0.797,1.269-1.888,1.269-3.091V6.42z"/>
	<path d="M69.432,54.319c-0.547,0.491-1.263,0.798-2.055,0.798c0.792,0,1.508,0.308,2.055,0.798   c0.403-0.214,0.778-0.474,1.096-0.798C70.21,54.794,69.835,54.534,69.432,54.319z"/>
	<path d="M16.636,55.915c0.547-0.49,1.263-0.798,2.056-0.798c-0.793,0-1.508-0.307-2.055-0.798   c-0.404,0.215-0.779,0.475-1.096,0.798C15.857,55.441,16.232,55.701,16.636,55.915z"/>
	<path d="M16.636,55.915c0.616,0.328,1.31,0.531,2.056,0.531h48.686c0.746,0,1.438-0.203,2.055-0.531   c-0.547-0.49-1.263-0.798-2.055-0.798H18.691C17.898,55.117,17.183,55.425,16.636,55.915z"/>
	<path d="M16.93,52.026V6.42c0-0.971,0.79-1.762,1.762-1.762h48.686c0.972,0,1.762,0.791,1.762,1.762v45.606   c0,0.972-0.79,1.763-1.762,1.763c0.745,0,1.438,0.203,2.055,0.53c0.631-0.565,1.036-1.379,1.036-2.293V6.42   c0-1.707-1.385-3.09-3.091-3.09H18.691c-1.708,0-3.091,1.384-3.091,3.09v45.606c0,0.914,0.404,1.728,1.036,2.293   c0.616-0.327,1.309-0.53,2.055-0.53C17.72,53.789,16.93,52.998,16.93,52.026z"/>
	<path d="M67.377,55.117c0.792,0,1.508-0.307,2.055-0.798c-0.617-0.327-1.31-0.53-2.055-0.53H18.691   c-0.746,0-1.438,0.203-2.055,0.53c0.547,0.491,1.262,0.798,2.055,0.798H67.377z"/>
	<path d="M63.771,62.975c0-1.494-1.212-2.705-2.705-2.705H51.02c-1.493,0-2.705,1.211-2.705,2.705c0,1.493,1.212,2.704,2.705,2.704   h9.827c-1.42-0.067-2.556-1.229-2.556-2.669c0-1.479,1.202-2.681,2.682-2.681c1.481,0,2.683,1.201,2.683,2.681   c0,1.291-0.912,2.366-2.126,2.622C62.801,65.411,63.771,64.309,63.771,62.975z"/>
	<path fill="#000000" d="M60.847,65.679c0.043,0.002,0.083,0.013,0.126,0.013c0.191,0,0.377-0.021,0.557-0.06   c-0.151,0.026-0.305,0.047-0.464,0.047H60.847z"/>
	<path d="M60.973,59.886c-1.723,0-3.125,1.401-3.125,3.124c0,1.724,1.402,3.125,3.125,3.125c1.724,0,3.125-1.401,3.125-3.125   C64.098,61.287,62.696,59.886,60.973,59.886z M60.973,65.249c-1.235,0-2.239-1.005-2.239-2.239s1.004-2.238,2.239-2.238   s2.239,1.004,2.239,2.238S62.208,65.249,60.973,65.249z"/>
	<path d="M56.984,17.105H30.596v-7.066h26.389V17.105z M31.48,16.22h24.618v-5.295H31.48V16.22z"/>
	<path d="M45.199,22.986h-2.82v-6.765h2.82V22.986z M43.264,22.815h1.05v-6.422h-1.05V22.815z"/>
	<path d="M60.736,55.303H26.843v-4.491h33.894V55.303z M27.729,54.417h32.122v-2.72H27.729V54.417z"/>
	<polygon fill="none" points="46.557,22.986 42.218,22.986 44.851,23.688  "/>
	<g>
		<polygon fill="none" points="41.32,30.78 50.021,30.78 44.801,25.246   "/>
		<polygon fill="none" points="37.943,39.614 39.937,31.798 32.918,33.393   "/>
		<polygon fill="none" points="51.274,30.842 56.507,32.755 56.422,32.449 55.45,28.931 48.515,23.455 45.482,24.7   "/>
		<polygon fill="none" points="46.38,23.391 42.115,23.391 44.703,24.081   "/>
		<polygon fill="none" points="53.008,40.378 50.692,31.651 40.873,31.651 38.643,40.396 45.337,45.625   "/>
		<polygon fill="none" points="53.668,39.469 56.9,34.188 56.791,33.786 51.664,31.912   "/>
		<path fill="none" d="M46.284,46.142c1.104,0.371,3.363,0.981,5.541,1.518l1.075-6.14L46.284,46.142z"/>
		<polygon fill="none" points="40.178,30.851 40.195,30.78 40.294,30.78 44.049,24.808 39.057,23.478 32.027,28.342 32.518,32.592       "/>
		<polygon fill="none" points="57.217,35.331 53.966,40.586 54.009,40.748 53.904,40.82 52.819,47.025 54.675,45.023 57.666,36.957       "/>
		<path fill="none" d="M38.532,41.414c-0.083,1.008-0.312,2.853-0.729,6.201l6.549-1.655L38.532,41.414z"/>
		<polygon fill="none" points="31.377,30.304 29.989,34.768 31.685,32.972   "/>
		<path fill="none" d="M45.303,46.702l-0.083-0.065l-7.234,1.831l1.261,1.961h8.23l3.546-2.068c-3.607-0.894-5.075-1.37-5.687-1.68    L45.303,46.702z"/>
		<polygon fill="none" points="32.115,33.786 29.4,36.658 29.389,36.697 31.662,45.098 37.535,40.492   "/>
		<path fill="none" d="M36.931,47.564c0.249-2.007,0.565-4.64,0.714-6.051l-5.23,4.1L36.931,47.564z"/>
		<polygon fill="none" points="34.742,47.567 37.621,49.513 36.998,48.541   "/>
		<path d="M58.58,36.996l-1.133-4.108l-1.268-4.597l-7.317-5.67l-0.127-0.1h-0.004l-0.08-0.063L48.5,22.52h-9.59l-7.676,5.312    l-2.605,8.376l-0.048,0.05l0.024,0.023l-0.124,0.399l2.437,9l-0.194,0.152l0.268,0.115l0.046,0.169l7.766,5.242l0.109,0.075h8.839    l4.675-2.734l0.31-0.33l0.592-0.344l-0.22-0.054l2.264-2.421L58.58,36.996z M56.9,34.188l-3.232,5.281l-2.004-7.557l5.127,1.875    L56.9,34.188z M51.825,47.659c-2.178-0.536-4.438-1.146-5.541-1.518L52.9,41.52L51.825,47.659z M40.873,31.651h9.819l2.315,8.727    l-7.671,5.247l-6.694-5.229L40.873,31.651z M37.943,39.614l-5.025-6.221l7.019-1.595L37.943,39.614z M41.32,30.78l3.48-5.534    l5.22,5.534H41.32z M48.515,23.455l6.936,5.476l0.972,3.519l0.085,0.306l-5.232-1.913L45.482,24.7L48.515,23.455z M46.38,23.391    l-1.677,0.689l-2.588-0.689H46.38z M39.057,23.478l4.992,1.33l-3.755,5.973h-0.099l-0.018,0.07l-7.66,1.741l-0.49-4.25    L39.057,23.478z M31.377,30.304l0.308,2.667l-1.695,1.796L31.377,30.304z M29.389,36.697l0.012-0.039l2.715-2.873l5.42,6.707    l-5.873,4.605L29.389,36.697z M34.742,47.567l2.256,0.974l0.623,0.972L34.742,47.567z M36.931,47.564l-4.517-1.951l5.23-4.1    C37.496,42.925,37.18,45.558,36.931,47.564z M38.532,41.414l5.819,4.546l-6.549,1.655C38.221,44.267,38.449,42.422,38.532,41.414z     M47.477,50.429h-8.23l-1.261-1.961l7.234-1.831l0.083,0.065l0.033-0.021c0.611,0.31,2.079,0.786,5.687,1.68L47.477,50.429z     M52.819,47.025l1.085-6.205l0.104-0.072l-0.043-0.162l3.251-5.255l0.449,1.626l-2.991,8.066L52.819,47.025z"/>
	</g>
</g>
</svg>